<svg viewBox="0 0 14 14" fill="none" xmlns="http://www.w3.org/2000/svg">
<mask id="mask0_745_1774" style="mask-type:alpha" maskUnits="userSpaceOnUse" x="0" y="0" width="14" height="14">
<path fill-rule="evenodd" clipRule="evenodd" d="M0.333496 0.333374H13.6668V13.6667H0.333496V0.333374Z" fill="white"/>
</mask>
<g mask="url(#mask0_745_1774)">
<path fill-rule="evenodd" clipRule="evenodd" d="M4.1095 1.33337C2.4235 1.33337 1.3335 2.48871 1.3335 4.27737V9.72271C1.3335 11.5114 2.4235 12.6667 4.1095 12.6667H9.88816C11.5762 12.6667 12.6668 11.5114 12.6668 9.72271V4.27737C12.6668 2.48871 11.5762 1.33337 9.8895 1.33337H4.1095ZM9.88816 13.6667H4.1095C1.85083 13.6667 0.333496 12.0814 0.333496 9.72271V4.27737C0.333496 1.91871 1.85083 0.333374 4.1095 0.333374H9.8895C12.1488 0.333374 13.6668 1.91871 13.6668 4.27737V9.72271C13.6668 12.0814 12.1488 13.6667 9.88816 13.6667Z" fill="#7879F1"/>
</g>
<path fill-rule="evenodd" clipRule="evenodd" d="M6.99609 10.1667C6.72009 10.1667 6.49609 9.94267 6.49609 9.66667V7C6.49609 6.724 6.72009 6.5 6.99609 6.5C7.27209 6.5 7.49609 6.724 7.49609 7V9.66667C7.49609 9.94267 7.27209 10.1667 6.99609 10.1667Z" fill="#7879F1"/>
<path fill-rule="evenodd" clipRule="evenodd" d="M6.99959 5.13607C6.63092 5.13607 6.32959 4.83807 6.32959 4.4694C6.32959 4.10073 6.62492 3.80273 6.99292 3.80273H6.99959C7.36826 3.80273 7.66626 4.10073 7.66626 4.4694C7.66626 4.83807 7.36826 5.13607 6.99959 5.13607Z" fill="#7879F1"/>
</svg>
