<svg width="52" height="54" viewBox="0 0 52 54" fill="none" xmlns="http://www.w3.org/2000/svg">
<g filter="url(#filter0_dd_135_972)">
<path d="M2 6C2 3.79086 3.79086 2 6 2H46C48.2091 2 50 3.79086 50 6V46C50 48.2091 48.2091 50 46 50H6C3.79086 50 2 48.2091 2 46V6Z" fill="#545454"/>
</g>
<mask id="mask0_135_972" style="mask-type:alpha" maskUnits="userSpaceOnUse" x="16" y="16" width="20" height="21">
<path fill-rule="evenodd" clipRule="evenodd" d="M16 16.0005H35.2849V36.7215H16V16.0005Z" fill="white"/>
</mask>
<g mask="url(#mask0_135_972)">
<path fill-rule="evenodd" clipRule="evenodd" d="M21.2023 31.4405C21.4313 31.4405 21.6603 31.4695 21.8843 31.5295C22.5603 31.7115 23.1473 32.1635 23.4953 32.7705C23.7213 33.1515 23.8463 33.5965 23.8503 34.0505C23.8503 34.7005 24.3723 35.2215 25.0143 35.2215H26.2673C26.9063 35.2215 27.4283 34.7035 27.4313 34.0645C27.4273 33.3585 27.7033 32.6875 28.2083 32.1825C28.7063 31.6845 29.4023 31.3855 30.0983 31.4055C30.5543 31.4165 30.9933 31.5395 31.3803 31.7595C31.9373 32.0785 32.6483 31.8885 32.9703 31.3385L33.6343 30.2315C33.7823 29.9765 33.8253 29.6565 33.7463 29.3615C33.6683 29.0665 33.4723 28.8105 33.2083 28.6595C32.5903 28.3035 32.1493 27.7295 31.9663 27.0415C31.7853 26.3665 31.8843 25.6295 32.2373 25.0225C32.4673 24.6225 32.8043 24.2855 33.2083 24.0535C33.7503 23.7365 33.9403 23.0275 33.6253 22.4755C33.6123 22.4535 33.6003 22.4305 33.5903 22.4065L33.0043 21.3905C32.6853 20.8355 31.9753 20.6445 31.4183 20.9615C30.8163 21.3175 30.1003 21.4195 29.4123 21.2385C28.7253 21.0605 28.1493 20.6255 27.7903 20.0115C27.5603 19.6275 27.4353 19.1805 27.4313 18.7255C27.4403 18.3835 27.3203 18.0765 27.1023 17.8515C26.8853 17.6275 26.5803 17.5005 26.2673 17.5005H25.0143C24.7043 17.5005 24.4143 17.6215 24.1953 17.8395C23.9773 18.0585 23.8583 18.3495 23.8603 18.6595C23.8393 20.1215 22.6443 21.2985 21.1973 21.2985C20.7333 21.2935 20.2863 21.1685 19.8983 20.9365C19.3533 20.6265 18.6413 20.8175 18.3223 21.3725L17.6453 22.4855C17.3353 23.0235 17.5253 23.7345 18.0773 24.0555C18.8963 24.5295 19.4073 25.4135 19.4073 26.3615C19.4073 27.3095 18.8963 28.1925 18.0753 28.6675C17.5263 28.9855 17.3363 29.6925 17.6543 30.2425L18.2853 31.3305C18.4413 31.6115 18.6963 31.8145 18.9913 31.8975C19.2853 31.9795 19.6093 31.9445 19.8793 31.7945C20.2763 31.5615 20.7383 31.4405 21.2023 31.4405ZM26.2673 36.7215H25.0143C23.5453 36.7215 22.3503 35.5275 22.3503 34.0585C22.3483 33.8775 22.2963 33.6895 22.1993 33.5265C22.0423 33.2525 21.7883 33.0565 21.4953 32.9785C21.2043 32.9005 20.8853 32.9435 20.6233 33.0955C19.9953 33.4455 19.2563 33.5305 18.5803 33.3405C17.9053 33.1495 17.3223 32.6855 16.9803 32.0705L16.3553 30.9935C15.6243 29.7255 16.0593 28.1005 17.3253 27.3685C17.6843 27.1615 17.9073 26.7755 17.9073 26.3615C17.9073 25.9475 17.6843 25.5605 17.3253 25.3535C16.0583 24.6175 15.6243 22.9885 16.3543 21.7205L17.0323 20.6075C17.7533 19.3535 19.3833 18.9115 20.6543 19.6415C20.8273 19.7445 21.0153 19.7965 21.2063 19.7985C21.8293 19.7985 22.3503 19.2845 22.3603 18.6525C22.3563 17.9555 22.6313 17.2865 23.1323 16.7815C23.6353 16.2775 24.3033 16.0005 25.0143 16.0005H26.2673C26.9833 16.0005 27.6793 16.2945 28.1783 16.8055C28.6763 17.3195 28.9513 18.0245 28.9303 18.7395C28.9323 18.9005 28.9853 19.0865 29.0813 19.2495C29.2403 19.5195 29.4913 19.7095 29.7893 19.7875C30.0873 19.8615 30.3993 19.8215 30.6643 19.6645C31.9443 18.9335 33.5733 19.3715 34.3043 20.6415L34.9273 21.7205C34.9433 21.7495 34.9573 21.7775 34.9693 21.8065C35.6313 23.0575 35.1893 24.6325 33.9593 25.3515C33.7803 25.4545 33.6353 25.5985 33.5353 25.7725C33.3803 26.0415 33.3373 26.3615 33.4153 26.6555C33.4953 26.9555 33.6863 27.2045 33.9553 27.3585C34.5623 27.7075 35.0153 28.2955 35.1963 28.9745C35.3773 29.6525 35.2783 30.3885 34.9253 30.9955L34.2613 32.1015C33.5303 33.3575 31.9013 33.7925 30.6343 33.0605C30.4653 32.9635 30.2703 32.9105 30.0763 32.9055H30.0703C29.7813 32.9055 29.4843 33.0285 29.2683 33.2435C29.0493 33.4625 28.9293 33.7545 28.9313 34.0645C28.9243 35.5335 27.7293 36.7215 26.2673 36.7215Z" fill="#F9F8FA"/>
</g>
<path fill-rule="evenodd" clipRule="evenodd" d="M25.6453 24.4746C24.6053 24.4746 23.7593 25.3216 23.7593 26.3616C23.7593 27.4016 24.6053 28.2466 25.6453 28.2466C26.6853 28.2466 27.5313 27.4016 27.5313 26.3616C27.5313 25.3216 26.6853 24.4746 25.6453 24.4746ZM25.6453 29.7466C23.7783 29.7466 22.2593 28.2286 22.2593 26.3616C22.2593 24.4946 23.7783 22.9746 25.6453 22.9746C27.5123 22.9746 29.0313 24.4946 29.0313 26.3616C29.0313 28.2286 27.5123 29.7466 25.6453 29.7466Z" fill="#F9F8FA"/>
<defs>
<filter id="filter0_dd_135_972" x="0" y="0" width="52" height="54" filterUnits="userSpaceOnUse" color-interpolation-filters="sRGB">
<feFlood flood-opacity="0" result="BackgroundImageFix"/>
<feColorMatrix in="SourceAlpha" type="matrix" values="0 0 0 0 0 0 0 0 0 0 0 0 0 0 0 0 0 0 127 0" result="hardAlpha"/>
<feOffset dy="2"/>
<feGaussianBlur stdDeviation="1"/>
<feColorMatrix type="matrix" values="0 0 0 0 0 0 0 0 0 0 0 0 0 0 0 0 0 0 0.24 0"/>
<feBlend mode="normal" in2="BackgroundImageFix" result="effect1_dropShadow_135_972"/>
<feColorMatrix in="SourceAlpha" type="matrix" values="0 0 0 0 0 0 0 0 0 0 0 0 0 0 0 0 0 0 127 0" result="hardAlpha"/>
<feOffset/>
<feGaussianBlur stdDeviation="1"/>
<feColorMatrix type="matrix" values="0 0 0 0 0 0 0 0 0 0 0 0 0 0 0 0 0 0 0.12 0"/>
<feBlend mode="normal" in2="effect1_dropShadow_135_972" result="effect2_dropShadow_135_972"/>
<feBlend mode="normal" in="SourceGraphic" in2="effect2_dropShadow_135_972" result="shape"/>
</filter>
</defs>
</svg>
