<svg width="30" height="35" viewBox="0 0 30 35" fill="none" xmlns="http://www.w3.org/2000/svg">
<path d="M2 35C0.896 35 0 34.104 0 33V2C0 0.896 0.896 0 2 0C3.104 0 4 0.896 4 2V33C4 34.104 3.104 35 2 35Z" fill="#545454"/>
<path d="M2 0C0.895 0 0 0.895 0 2V33C0 33.276 0.224 33.5 0.5 33.5C0.776 33.5 1 33.276 1 33V3.414C1 2.633 1.633 2 2.414 2H4C4 0.895 3.105 0 2 0Z" fill="#242729"/>
<path d="M2 35C0.896 35 0 34.104 0 33V2C0 0.896 0.896 0 2 0C3.104 0 4 0.896 4 2V33C4 34.104 3.104 35 2 35Z" fill="#545454"/>
<path d="M2 0C0.895 0 0 0.895 0 2V33C0 33.276 0.224 33.5 0.5 33.5C0.776 33.5 1 33.276 1 33V3.414C1 2.633 1.633 2 2.414 2H4C4 0.895 3.105 0 2 0Z" fill="#242729"/>
<path d="M29.415 2.08983C27.663 1.29083 25.8 0.902832 23.717 0.902832C21.199 0.902832 18.697 1.47283 16.279 2.02483C13.861 2.57583 11.577 3.09683 9.284 3.09683C7.494 3.09683 5.902 2.76783 4.416 2.09083C4.107 1.94883 3.746 1.97583 3.46 2.15883C3.173 2.34283 3 2.65983 3 2.99983V21.9998C3 22.3918 3.229 22.7468 3.585 22.9098C5.337 23.7088 7.201 24.0968 9.283 24.0968C11.801 24.0968 14.303 23.5268 16.721 22.9748C19.139 22.4238 21.423 21.9038 23.716 21.9038C25.506 21.9038 27.099 22.2328 28.584 22.9108C28.895 23.0508 29.254 23.0258 29.54 22.8418C29.827 22.6568 30 22.3398 30 21.9998V2.99983C30 2.60783 29.771 2.25183 29.415 2.08983Z" fill="#FE457A"/>
</svg>
