<svg width="48" height="48" viewBox="0 0 48 48" fill="none" xmlns="http://www.w3.org/2000/svg">
<rect x="0.75" y="0.75" width="46.5" height="46.5" rx="3.25" fill="white" stroke="#545454" stroke-width="1.5"/>
<path fill-rule="evenodd" clip-rule="evenodd" d="M21.7609 27.6167C21.5689 27.6167 21.3769 27.5437 21.2309 27.3967C20.4929 26.6597 20.0859 25.6797 20.0859 24.6377C20.0859 22.4777 21.8419 20.7207 23.9999 20.7207C25.0379 20.7207 26.0459 21.1397 26.7649 21.8707C27.0549 22.1667 27.0519 22.6407 26.7559 22.9307C26.4609 23.2227 25.9869 23.2177 25.6959 22.9237C25.2569 22.4767 24.6389 22.2207 23.9999 22.2207C22.6689 22.2207 21.5859 23.3047 21.5859 24.6377C21.5859 25.2787 21.8369 25.8827 22.2909 26.3367C22.5839 26.6297 22.5839 27.1037 22.2919 27.3967C22.1449 27.5437 21.9529 27.6167 21.7609 27.6167Z" fill="#545454"/>
<path fill-rule="evenodd" clip-rule="evenodd" d="M24.5676 28.4903C24.2126 28.4903 23.8966 28.2363 23.8306 27.8743C23.7566 27.4673 24.0266 27.0763 24.4346 27.0023C25.4146 26.8243 26.1906 26.0463 26.3666 25.0653C26.4406 24.6583 26.8306 24.3903 27.2376 24.4603C27.6456 24.5333 27.9166 24.9233 27.8436 25.3313C27.5566 26.9243 26.2946 28.1883 24.7026 28.4783C24.6576 28.4863 24.6116 28.4903 24.5676 28.4903Z" fill="#545454"/>
<mask id="mask0_790_2758" style="mask-type:alpha" maskUnits="userSpaceOnUse" x="14" y="16" width="17" height="15">
<path fill-rule="evenodd" clip-rule="evenodd" d="M14 16.624H30.0862V30.7222H14V16.624Z" fill="white"/>
</mask>
<g mask="url(#mask0_790_2758)">
<path fill-rule="evenodd" clip-rule="evenodd" d="M18.6545 30.7222C18.4925 30.7222 18.3295 30.6692 18.1915 30.5622C16.5005 29.2342 15.0715 27.2872 14.0615 24.9332C13.9795 24.7432 13.9795 24.5292 14.0615 24.3402C15.0825 21.9762 16.5205 20.0192 18.2205 18.6822C21.6865 15.9392 26.3005 15.9302 29.8015 18.7022C30.1265 18.9592 30.1815 19.4312 29.9245 19.7562C29.6665 20.0792 29.1965 20.1362 28.8705 19.8782C25.9045 17.5302 22.0835 17.5382 19.1495 19.8602C17.7135 20.9902 16.4805 22.6362 15.5705 24.6382C16.4715 26.6281 17.6935 28.2642 19.1185 29.3822C19.4445 29.6382 19.5005 30.1102 19.2445 30.4352C19.0965 30.6231 18.8765 30.7222 18.6545 30.7222Z" fill="#545454"/>
</g>
<mask id="mask1_790_2758" style="mask-type:alpha" maskUnits="userSpaceOnUse" x="20" y="20" width="14" height="13">
<path fill-rule="evenodd" clip-rule="evenodd" d="M20.7173 20.7412H33.9998V32.6894H20.7173V20.7412Z" fill="white"/>
</mask>
<g mask="url(#mask1_790_2758)">
<path fill-rule="evenodd" clip-rule="evenodd" d="M23.9999 32.6894C23.0629 32.6894 22.1309 32.5374 21.2309 32.2384C20.8379 32.1074 20.6249 31.6824 20.7559 31.2894C20.8869 30.8954 21.3099 30.6864 21.7049 30.8144C22.4519 31.0634 23.2239 31.1894 23.9999 31.1894C27.4279 31.1894 30.5609 28.7474 32.4299 24.6364C31.9739 23.6374 31.4429 22.7324 30.8489 21.9424C30.5999 21.6114 30.6659 21.1404 30.9969 20.8914C31.3269 20.6424 31.7979 20.7104 32.0469 21.0404C32.7709 22.0014 33.4069 23.1124 33.9379 24.3384C34.0209 24.5284 34.0209 24.7444 33.9379 24.9334C31.8419 29.7904 28.1269 32.6894 23.9999 32.6894Z" fill="#545454"/>
</g>
<mask id="mask2_790_2758" style="mask-type:alpha" maskUnits="userSpaceOnUse" x="15" y="16" width="18" height="18">
<path fill-rule="evenodd" clip-rule="evenodd" d="M15.3638 16H32.6373V33.273H15.3638V16Z" fill="white"/>
</mask>
<g mask="url(#mask2_790_2758)">
<path fill-rule="evenodd" clip-rule="evenodd" d="M16.1135 33.2728C15.9215 33.2728 15.7295 33.1998 15.5835 33.0528C15.2905 32.7598 15.2905 32.2858 15.5835 31.9928L31.3575 16.2188C31.6505 15.9258 32.1245 15.9258 32.4175 16.2188C32.7105 16.5118 32.7105 16.9868 32.4175 17.2798L16.6435 33.0528C16.4975 33.1998 16.3055 33.2728 16.1135 33.2728Z" fill="#545454"/>
</g>
</svg>
