<svg width="48" height="48" viewBox="0 0 48 48" fill="none" xmlns="http://www.w3.org/2000/svg">
<rect width="48" height="48" rx="4" fill="#7C74D5"/>
<path fill-rule="evenodd" clip-rule="evenodd" d="M23.9994 21.6406C22.6694 21.6406 21.5884 22.7226 21.5884 24.0526C21.5884 25.3816 22.6694 26.4626 23.9994 26.4626C25.3294 26.4626 26.4114 25.3816 26.4114 24.0526C26.4114 22.7226 25.3294 21.6406 23.9994 21.6406ZM23.9994 27.9626C21.8424 27.9626 20.0884 26.2086 20.0884 24.0526C20.0884 21.8956 21.8424 20.1406 23.9994 20.1406C26.1564 20.1406 27.9114 21.8956 27.9114 24.0526C27.9114 26.2086 26.1564 27.9626 23.9994 27.9626Z" fill="#F9F8FA"/>
<mask id="mask0_790_3011" style="mask-type:alpha" maskUnits="userSpaceOnUse" x="14" y="16" width="20" height="17">
<path fill-rule="evenodd" clip-rule="evenodd" d="M14 16H33.9998V32.105H14V16Z" fill="white"/>
</mask>
<g mask="url(#mask0_790_3011)">
<path fill-rule="evenodd" clip-rule="evenodd" d="M15.5697 24.0527C17.4297 28.1617 20.5628 30.6047 23.9998 30.6057C27.4368 30.6047 30.5697 28.1617 32.4298 24.0527C30.5697 19.9448 27.4368 17.5017 23.9998 17.5007C20.5638 17.5017 17.4297 19.9448 15.5697 24.0527ZM24.0017 32.1057H23.9978H23.9967C19.8607 32.1027 16.1467 29.2038 14.0608 24.3488C13.9797 24.1597 13.9797 23.9458 14.0608 23.7568C16.1467 18.9028 19.8617 16.0038 23.9967 16.0008C23.9987 15.9997 23.9987 15.9997 23.9998 16.0008C24.0017 15.9997 24.0017 15.9997 24.0028 16.0008C28.1388 16.0038 31.8527 18.9028 33.9387 23.7568C34.0208 23.9458 34.0208 24.1597 33.9387 24.3488C31.8537 29.2038 28.1388 32.1027 24.0028 32.1057H24.0017Z" fill="#F9F8FA"/>
</g>
</svg>
