<svg width="412" height="160" viewBox="0 0 412 160" fill="none" xmlns="http://www.w3.org/2000/svg">
<path d="M206 0C162.835 0 127.834 35.8222 127.834 80C127.834 106.893 140.844 130.631 160.724 145.133C161.176 116.52 151.01 84.4445 133.931 84.4445C131.916 84.4445 130.283 84.7378 128.924 85.2578C130.24 81.8933 133.093 80 138.43 80C156.973 80 167.377 117.804 164.885 147.947C176.844 155.542 190.897 160 206 160C221.108 160 235.165 155.538 247.124 147.942C244.618 117.689 255.019 80 273.574 80C278.929 80 281.79 81.8933 283.093 85.2578C281.73 84.7378 280.093 84.4445 278.069 84.4445C260.968 84.4445 250.806 116.44 251.275 145.133C271.16 130.631 284.166 106.893 284.166 80C284.166 35.8222 249.169 0 206 0Z" fill="#FFCC4D"/>
<path d="M206 0C162.835 0 127.834 35.8222 127.834 80C127.834 85.2978 128.368 90.4711 129.328 95.4844C130.344 91.6489 131.933 87.9689 133.922 84.4444C131.912 84.4444 130.283 84.7378 128.928 85.2578C130.075 82.3289 132.498 80.6 136.606 80.1822C149.599 61.6089 175.763 48.8889 206 48.8889C236.241 48.8889 262.401 61.6044 275.394 80.1778C279.519 80.5956 281.951 82.32 283.089 85.2578C281.734 84.7378 280.097 84.4444 278.082 84.4444C280.071 87.9689 281.656 91.6489 282.676 95.4844C283.636 90.4711 284.166 85.2978 284.166 80C284.166 35.8222 249.169 0 206 0Z" fill="#BDDDF4"/>
<path d="M159.741 52.9334C155.632 67.0489 160.205 80.9023 169.959 83.8756C179.712 86.8534 190.95 77.8223 195.054 63.7067C199.162 49.5956 194.594 35.7378 184.845 32.7645C175.091 29.7912 163.853 38.8223 159.741 52.9334ZM252.259 52.9334C256.367 67.0489 251.794 80.9023 242.045 83.8756C232.292 86.8534 221.053 77.8223 216.949 63.7067C212.841 49.5956 217.414 35.7378 227.159 32.7645C236.908 29.7912 248.146 38.8223 252.259 52.9334Z" fill="#F9F8FA"/>
<path d="M206 80C194.027 80 184.287 89.9689 184.287 102.222V128.889C184.287 141.142 194.027 151.111 206 151.111C217.972 151.111 227.713 141.142 227.713 128.889V102.222C227.713 89.9689 217.972 80 206 80Z" fill="#664500"/>
<path d="M133.931 84.4443C131.916 84.4443 130.284 84.7376 128.924 85.2576C129.237 84.4621 129.649 83.7643 130.145 83.1421C122.059 93.3243 140.206 126.844 131.387 160H159.439C164.607 129.067 154.076 84.4443 133.931 84.4443ZM283.094 85.2576C281.73 84.7376 280.093 84.4443 278.069 84.4443C257.915 84.4443 247.389 128.898 252.565 160H280.618C272.341 128.689 287.81 97.3821 283.094 85.2576Z" fill="#FCAB40"/>
<path d="M111.549 105.881V122.41H0V110.557L69.1351 0.833008H85.1465L67.9687 32.5867L22.2675 105.881H111.549ZM90.0241 0.833008V159.166H70.4076V0.833008H90.0241Z" fill="white"/>
<path d="M412 105.048V121.577H300.451V109.724L369.586 0H385.598L368.42 31.7537L322.719 105.048H412ZM390.475 0V158.333H370.859V0H390.475Z" fill="white"/>
</svg>
