<svg width="30" height="30" viewBox="0 0 30 30" fill="none" xmlns="http://www.w3.org/2000/svg">
<path fill-rule="evenodd" clipRule="evenodd" d="M4 0C1.79086 0 0 1.79086 0 4V26C0 28.2091 1.79086 30 4 30H26C28.2091 30 30 28.2091 30 26V4C30 1.79086 28.2091 0 26 0H4ZM4.23908 8.38171C4.17353 8.32708 4.14896 8.23641 4.18488 8.15901C4.50251 7.47461 5.19583 7 6 7H24C24.8042 7 25.4975 7.47461 25.8151 8.15901C25.851 8.23641 25.8265 8.32708 25.7609 8.38171L15.3201 17.0824C15.1347 17.2369 14.8653 17.2369 14.6799 17.0824L4.23908 8.38171ZM25.672 9.75755C25.8022 9.649 26 9.74163 26 9.9112V21C26 22.1046 25.1046 23 24 23H6C4.89543 23 4 22.1046 4 21V9.9112C4 9.74163 4.19777 9.649 4.32804 9.75755L14.0397 17.8506C14.596 18.3142 15.404 18.3142 15.9603 17.8506L25.672 9.75755Z" fill="#545454" fill-opacity="0.4"/>
</svg>
