<svg width="30" height="30" viewBox="0 0 30 30" fill="none" xmlns="http://www.w3.org/2000/svg">
<path fill-rule="evenodd" clipRule="evenodd" d="M4 0C1.79086 0 0 1.79086 0 4V26C0 28.2091 1.79086 30 4 30H26C28.2091 30 30 28.2091 30 26V4C30 1.79086 28.2091 0 26 0H4ZM21.5 15L20.8333 19.1667H17.5V30H12.5V19.1667H8.75V15H12.5V11.6667C12.5 7.91665 14.9167 5.83332 18.3333 5.83332C19.4167 5.83332 20.5833 5.99999 21.6667 6.16665V9.99999H19.75C17.9167 9.99999 17.5 10.9167 17.5 12.0833V15H21.5Z" fill="#545454" fill-opacity="0.4"/>
</svg>
