<svg width="30" height="30" viewBox="0 0 30 30" fill="none" xmlns="http://www.w3.org/2000/svg">
<path fill-rule="evenodd" clipRule="evenodd" d="M4 0C1.79086 0 0 1.79086 0 4V26C0 28.2091 1.79086 30 4 30H26C28.2091 30 30 28.2091 30 26V4C30 1.79086 28.2091 0 26 0H4ZM6.73363 9.31662C8.17095 9.31662 9.33612 8.15144 9.33612 6.71413C9.33612 5.27681 8.17095 4.11163 6.73363 4.11163C5.29631 4.11163 4.13114 5.27681 4.13114 6.71413C4.13114 8.15144 5.29631 9.31662 6.73363 9.31662ZM11.7196 11.2399H16.0327V13.2158C16.0327 13.2158 17.2032 10.875 20.3878 10.875C23.2286 10.875 25.5819 12.2744 25.5819 16.54V25.535H21.1122V17.63C21.1122 15.1137 19.7688 14.8369 18.7451 14.8369C16.6206 14.8369 16.2569 16.6694 16.2569 17.9582V25.535H11.7196V11.2399ZM9.00229 11.2399H4.46497V25.535H9.00229V11.2399Z" fill="#545454" fill-opacity="0.4"/>
</svg>
