<svg width="30" height="30" viewBox="0 0 30 30" fill="none" xmlns="http://www.w3.org/2000/svg">
<path fill-rule="evenodd" clipRule="evenodd" d="M4 0C1.79086 0 0 1.79086 0 4V26C0 28.2091 1.79086 30 4 30H26C28.2091 30 30 28.2091 30 26V4C30 1.79086 28.2091 0 26 0H4ZM23.3365 11.9072C23.3365 11.7198 23.3341 11.5325 23.3268 11.3451C24.1028 10.7404 24.7747 9.98251 25.3084 9.12228C24.597 9.46296 23.8299 9.69275 23.0256 9.79495C23.8476 9.26689 24.4767 8.42387 24.7746 7.41885C24.0059 7.91284 23.1564 8.27054 22.2496 8.45791C21.5253 7.62323 20.4933 7.10361 19.3507 7.10361C17.156 7.10361 15.3771 9.02853 15.3771 11.4048C15.3771 11.737 15.4118 12.0691 15.4797 12.3842C12.1778 12.2053 9.24905 10.4934 7.29008 7.88712C6.94609 8.52591 6.75068 9.26693 6.75068 10.0505C6.75068 11.541 7.4524 12.8611 8.5199 13.6362C7.86825 13.6106 7.25457 13.4148 6.7184 13.0997V13.1509C6.7184 15.2376 8.08869 16.975 9.90797 17.3668C9.57205 17.469 9.2216 17.5201 8.86065 17.5201C8.60468 17.5201 8.35438 17.4944 8.11132 17.4433C8.61762 19.1468 10.0856 20.3988 11.8242 20.4243C10.4643 21.5827 8.75004 22.2727 6.88878 22.2727C6.56821 22.2727 6.25247 22.2471 5.94159 22.213C7.7003 23.431 9.78766 24.1464 12.0325 24.1464C19.3403 24.1464 23.3365 17.5881 23.3365 11.9072Z" fill="#545454" fill-opacity="0.4"/>
</svg>
