<svg width="7" height="7" viewBox="0 0 7 7" fill="none" xmlns="http://www.w3.org/2000/svg">
<path fill-rule="evenodd" clip-rule="evenodd" d="M0.244293 6.74988C0.406599 6.91329 0.620043 6.99445 0.833486 6.99445C1.04693 6.99445 1.26037 6.91329 1.42268 6.74988L3.49675 4.67581L5.57594 6.75543C5.73824 6.91885 5.95169 7.00001 6.16513 7.00001C6.37746 7.00001 6.59202 6.91885 6.75432 6.75543C7.08005 6.42971 7.08005 5.90277 6.75432 5.57705L4.67513 3.49742L6.74988 1.42268C7.0756 1.09696 7.0756 0.570017 6.74988 0.244293C6.42415 -0.081431 5.89721 -0.081431 5.57149 0.244293L3.49687 2.31891L1.42268 0.244293C1.09807 -0.081431 0.571128 -0.081431 0.244293 0.244293C-0.081431 0.570017 -0.081431 1.09696 0.244293 1.42268L2.31848 3.4973L0.244293 5.57149C-0.081431 5.89721 -0.081431 6.42415 0.244293 6.74988Z" fill="#545454"/>
</svg>
