<svg width="20" height="17" viewBox="0 0 20 17" fill="none" xmlns="http://www.w3.org/2000/svg">
<path fill-rule="evenodd" clipRule="evenodd" d="M9.99962 5.64136C8.66962 5.64136 7.58862 6.72336 7.58862 8.05336C7.58862 9.38236 8.66962 10.4634 9.99962 10.4634C11.3296 10.4634 12.4116 9.38236 12.4116 8.05336C12.4116 6.72336 11.3296 5.64136 9.99962 5.64136ZM9.99962 11.9634C7.84262 11.9634 6.08862 10.2094 6.08862 8.05336C6.08862 5.89636 7.84262 4.14136 9.99962 4.14136C12.1566 4.14136 13.9116 5.89636 13.9116 8.05336C13.9116 10.2094 12.1566 11.9634 9.99962 11.9634Z" fill="#F9F8FA"/>
<mask id="mask0_634_120" style="mask-type:alpha" maskUnits="userSpaceOnUse" x="0" y="0" width="20" height="17">
<path fill-rule="evenodd" clipRule="evenodd" d="M0.00012207 0.000244141H20V16.1052H0.00012207V0.000244141Z" fill="white"/>
</mask>
<g mask="url(#mask0_634_120)">
<path fill-rule="evenodd" clipRule="evenodd" d="M1.56987 8.05251C3.42987 12.1615 6.56287 14.6045 9.99987 14.6055C13.4369 14.6045 16.5699 12.1615 18.4299 8.05251C16.5699 3.94451 13.4369 1.50151 9.99987 1.50051C6.56387 1.50151 3.42987 3.94451 1.56987 8.05251ZM10.0019 16.1055H9.99787H9.99687C5.86087 16.1025 2.14687 13.2035 0.0608721 8.34851C-0.0201279 8.15951 -0.0201279 7.94551 0.0608721 7.75651C2.14687 2.90251 5.86187 0.00350586 9.99687 0.000505859C9.99887 -0.000494141 9.99887 -0.000494141 9.99987 0.000505859C10.0019 -0.000494141 10.0019 -0.000494141 10.0029 0.000505859C14.1389 0.00350586 17.8529 2.90251 19.9389 7.75651C20.0209 7.94551 20.0209 8.15951 19.9389 8.34851C17.8539 13.2035 14.1389 16.1025 10.0029 16.1055H10.0019Z" fill="#F9F8FA"/>
</g>
</svg>
