<svg width="36" height="35" viewBox="0 0 36 35" fill="none" xmlns="http://www.w3.org/2000/svg">
<path d="M0.0270996 17L8.0271 10L24.0271 11L25.0271 27L18.0271 35C18.0271 35 18.0281 29.001 12.0271 23C6.0261 16.999 0.0270996 17 0.0270996 17Z" fill="#FE457A"/>
<path d="M1.95077e-05 35.0001C1.95077e-05 35.0001 -0.0359805 27.0211 2.98502 24.0001C6.00602 20.9791 14.027 21.1871 14.027 21.1871C14.027 21.1871 14.026 29.0001 11.026 32.0001C8.02602 35.0001 1.95077e-05 35.0001 1.95077e-05 35.0001Z" fill="#FAA846"/>
<path d="M8.02612 31C10.2353 31 12.0261 29.2091 12.0261 27C12.0261 24.7909 10.2353 23 8.02612 23C5.81698 23 4.02612 24.7909 4.02612 27C4.02612 29.2091 5.81698 31 8.02612 31Z" fill="#FFCC4D"/>
<path d="M35.026 0C35.026 0 25.026 0 13.026 10C7.02599 15 7.02599 24 9.02599 26C11.026 28 20.026 28 25.026 22C35.026 10 35.026 0 35.026 0Z" fill="#64C7FE"/>
<path d="M26.026 5C24.403 5 23.013 5.971 22.385 7.36C22.887 7.133 23.44 7 24.026 7C26.235 7 28.026 8.791 28.026 11C28.026 11.586 27.893 12.139 27.667 12.64C29.056 12.013 30.026 10.623 30.026 9C30.026 6.791 28.235 5 26.026 5Z" fill="black"/>
<path d="M7.0271 28.0002C7.0271 28.0002 7.0271 24.0002 8.0271 23.0002C9.0271 22.0002 21.0281 12.0012 22.0271 13.0002C23.0261 13.9992 13.0261 26.0002 12.0261 27.0002C11.0261 28.0002 7.0271 28.0002 7.0271 28.0002Z" fill="#FE457A"/>
</svg>
