<svg width="36" height="36" viewBox="0 0 36 36" fill="none" xmlns="http://www.w3.org/2000/svg">
<path d="M4.86088 9.14711C5.80088 8.49011 7.21788 8.61611 8.06188 9.31311L7.09388 7.90611C6.31488 6.79511 6.59388 5.59311 7.70588 4.81311C8.81788 4.03611 11.9689 6.12511 11.9689 6.12511C11.1829 5.00311 11.3299 3.58111 12.4519 2.79411C13.5739 2.01011 15.1219 2.28111 15.9079 3.40511L26.3279 18.1251L24.9999 31.0001L13.9169 26.9581L4.24988 12.6251C3.45688 11.4961 3.73088 9.93911 4.86088 9.14711Z" fill="#EF9645"/>
<path d="M2.69497 17.3361C2.69497 17.3361 1.56297 15.6861 3.21397 14.5551C4.86297 13.4241 5.99397 15.0731 5.99397 15.0731L11.245 22.7311C11.426 22.4291 11.624 22.1311 11.845 21.8371L4.55697 11.2101C4.55697 11.2101 3.42597 9.56108 5.07597 8.43008C6.72497 7.29908 7.85597 8.94808 7.85597 8.94808L14.711 18.9451C14.966 18.7371 15.227 18.5281 15.496 18.3231L7.54897 6.73208C7.54897 6.73208 6.41797 5.08308 8.06797 3.95208C9.71697 2.82108 10.848 4.47008 10.848 4.47008L18.795 16.0591C19.087 15.8801 19.376 15.7251 19.666 15.5611L12.238 4.72908C12.238 4.72908 11.107 3.08008 12.756 1.94908C14.405 0.81808 15.536 2.46708 15.536 2.46708L23.39 13.9211L24.584 15.6631C19.636 19.0571 19.165 25.4421 21.992 29.5651C22.557 30.3901 23.382 29.8251 23.382 29.8251C19.989 24.8761 21.025 19.3151 25.974 15.9221L24.515 8.62008C24.515 8.62008 23.97 6.69608 25.893 6.15008C27.817 5.60508 28.363 7.52908 28.363 7.52908L30.048 12.5331C30.716 14.5171 31.427 16.4941 32.368 18.3641C35.025 23.6441 33.438 30.2061 28.428 33.6431C22.963 37.3901 15.492 35.9971 11.744 30.5331L2.69497 17.3361Z" fill="#FFDC5D"/>
<path d="M12 32.042C8.00001 32.042 3.95801 28 3.95801 24C3.95801 23.447 3.55301 23 3.00001 23C2.44701 23 1.95801 23.447 1.95801 24C1.95801 30 6.00001 34.042 12 34.042C12.553 34.042 13 33.553 13 33C13 32.447 12.553 32.042 12 32.042Z" fill="#64C7FE"/>
<path d="M7 34C4 34 2 32 2 29C2 28.447 1.553 28 1 28C0.447 28 0 28.447 0 29C0 33 3 36 7 36C7.553 36 8 35.553 8 35C8 34.447 7.553 34 7 34ZM24 2C23.448 2 23 2.448 23 3C23 3.552 23.448 4 24 4C28 4 32 7.589 32 12C32 12.552 32.448 13 33 13C33.552 13 34 12.552 34 12C34 6.486 30 2 24 2Z" fill="#64C7FE"/>
<path d="M29 0.0419922C28.448 0.0419922 28 0.447992 28 0.999992C28 1.55199 28.448 2.04199 29 2.04199C32 2.04199 33.958 4.26699 33.958 6.99999C33.958 7.55199 34.447 7.99999 35 7.99999C35.553 7.99999 35.958 7.55199 35.958 6.99999C35.958 3.16299 33 0.0419922 29 0.0419922Z" fill="#64C7FE"/>
</svg>
