<svg width="36" height="36" viewBox="0 0 36 36" fill="none" xmlns="http://www.w3.org/2000/svg">
<path d="M26.0005 8.5C22.4095 8.5 19.7305 6.852 18.0115 3.595C16.3855 6.814 13.9935 8.5 11.0005 8.5C10.4485 8.5 10.0005 8.052 10.0005 7.5C10.0005 6.948 10.4485 6.5 11.0005 6.5C13.7295 6.5 15.7655 4.543 17.0515 0.684C17.1885 0.275 17.5695 0 18.0005 0C18.4315 0 18.8125 0.275 18.9495 0.684C20.2715 4.651 22.5125 6.5 26.0005 6.5C26.5535 6.5 27.0005 6.948 27.0005 7.5C27.0005 8.052 26.5535 8.5 26.0005 8.5Z" fill="#292F33"/>
<path d="M14.7115 9.15389C18.0755 12.5199 15.2095 15.1079 11.8435 18.4729C8.4785 21.8379 5.8895 24.7049 2.5245 21.3409C-0.8415 17.9749 -0.8415 12.5189 2.5245 9.15389C5.8905 5.78789 11.3455 5.78789 14.7115 9.15389Z" fill="#FFAC33"/>
<path d="M15.5426 10.4722C17.1266 12.0572 15.7906 15.9582 12.5596 19.1892C9.32857 22.4202 5.42757 23.7572 3.84257 22.1712C2.25857 20.5872 3.59457 16.6852 6.82457 13.4542C10.0566 10.2242 13.9586 8.88821 15.5426 10.4722Z" fill="#FE457A"/>
<path d="M21.2895 9.15389C17.9265 12.5199 20.7915 15.1079 24.1575 18.4729C27.5225 21.8379 30.1115 24.7049 33.4765 21.3409C36.8415 17.9749 36.8415 12.5189 33.4765 9.15389C30.1115 5.78789 24.6565 5.78789 21.2895 9.15389Z" fill="#FFAC33"/>
<path d="M20.4594 10.4722C18.8744 12.0572 20.2104 15.9582 23.4414 19.1892C26.6714 22.4202 30.5744 23.7572 32.1584 22.1712C33.7424 20.5872 32.4064 16.6852 29.1754 13.4542C25.9454 10.2242 22.0424 8.88821 20.4594 10.4722Z" fill="#FE457A"/>
<path d="M22.4106 17.7212C22.6096 17.5612 22.8696 17.4772 23.1446 17.5062C24.0116 17.6002 24.7426 17.9022 25.2536 18.3792C25.7946 18.8842 26.0606 19.5621 25.9876 20.2411C25.8586 21.4321 24.6636 22.5261 22.6246 22.3061C21.8316 22.2211 21.4786 22.4762 21.4666 22.5972C21.4526 22.7182 21.7436 23.0431 22.5366 23.1291C23.4036 23.2231 24.1346 23.5252 24.6456 24.0022C25.1866 24.5072 25.4546 25.1852 25.3796 25.8642C25.2506 27.0562 24.0556 28.1492 22.0186 27.9302C21.4406 27.8682 21.1356 27.9872 21.0066 28.0641C20.9036 28.1271 20.8626 28.1882 20.8586 28.2222C20.8466 28.3422 21.1336 28.6672 21.9286 28.7532C22.4776 28.8132 22.8756 29.3062 22.8156 29.8552C22.7566 30.4042 22.2646 30.8012 21.7136 30.7422C19.6766 30.5232 18.7406 29.2002 18.8696 28.0072C18.9986 26.8152 20.1936 25.7221 22.2326 25.9422C22.8106 26.0051 23.1136 25.8852 23.2426 25.8082C23.3466 25.7462 23.3876 25.6852 23.3906 25.6511C23.4046 25.5301 23.1156 25.2051 22.3206 25.1191C20.2836 24.8991 19.3476 23.5772 19.4766 22.3842C19.6056 21.1922 20.8006 20.0982 22.8376 20.3202C23.4156 20.3822 23.7206 20.2621 23.8496 20.1851C23.9526 20.1231 23.9936 20.0622 23.9976 20.0282C24.0096 19.9072 23.7206 19.5822 22.9276 19.4962C22.3786 19.4372 21.9806 18.9431 22.0406 18.3941C22.0726 18.1181 22.2116 17.8822 22.4106 17.7212Z" fill="#AA8DD8"/>
<path d="M15.2664 35.3281C13.2934 35.8851 11.9324 35.0061 11.6084 33.8511C11.2844 32.6971 11.9864 31.2361 13.9584 30.6811C14.7284 30.4651 14.9594 30.0971 14.9284 29.9801C14.8944 29.8611 14.5034 29.6681 13.7354 29.8841C11.7634 30.4401 10.4024 29.5601 10.0784 28.4051C9.75242 27.2501 10.4564 25.7911 12.4294 25.2361C13.1984 25.0191 13.4304 24.6501 13.3964 24.5331C13.3634 24.4171 12.9734 24.2221 12.2044 24.4381C11.6744 24.5871 11.1204 24.2791 10.9714 23.7481C10.8234 23.2151 11.1324 22.6641 11.6644 22.5141C13.6354 21.9591 14.9974 22.8361 15.3234 23.9931C15.6474 25.1471 14.9444 26.6061 12.9714 27.1631C12.2014 27.3791 11.9704 27.7471 12.0044 27.8641C12.0364 27.9811 12.4264 28.1761 13.1944 27.9601C15.1684 27.4041 16.5284 28.2821 16.8534 29.4391C17.1784 30.5921 16.4754 32.0511 14.5014 32.6081C13.7334 32.8231 13.5024 33.1941 13.5344 33.3091C13.5684 33.4271 13.9574 33.6211 14.7264 33.4061C15.2584 33.2551 15.8094 33.5651 15.9594 34.0961C16.1084 34.6271 15.7984 35.1801 15.2664 35.3281Z" fill="#77B255"/>
<path d="M2.50049 28.5C3.32892 28.5 4.00049 27.8284 4.00049 27C4.00049 26.1716 3.32892 25.5 2.50049 25.5C1.67206 25.5 1.00049 26.1716 1.00049 27C1.00049 27.8284 1.67206 28.5 2.50049 28.5Z" fill="#23B979"/>
<path d="M7.00049 32.5C8.10506 32.5 9.00049 31.6046 9.00049 30.5C9.00049 29.3954 8.10506 28.5 7.00049 28.5C5.89592 28.5 5.00049 29.3954 5.00049 30.5C5.00049 31.6046 5.89592 32.5 7.00049 32.5Z" fill="#7C74D5"/>
<path d="M30.0005 28.5C31.1051 28.5 32.0005 27.6046 32.0005 26.5C32.0005 25.3954 31.1051 24.5 30.0005 24.5C28.8959 24.5 28.0005 25.3954 28.0005 26.5C28.0005 27.6046 28.8959 28.5 30.0005 28.5Z" fill="#7C74D5"/>
<path d="M25.5005 32.5C26.3289 32.5 27.0005 31.8284 27.0005 31C27.0005 30.1716 26.3289 29.5 25.5005 29.5C24.6721 29.5 24.0005 30.1716 24.0005 31C24.0005 31.8284 24.6721 32.5 25.5005 32.5Z" fill="#23B979"/>
<path d="M17.5005 20.5C18.3289 20.5 19.0005 19.8284 19.0005 19C19.0005 18.1716 18.3289 17.5 17.5005 17.5C16.6721 17.5 16.0005 18.1716 16.0005 19C16.0005 19.8284 16.6721 20.5 17.5005 20.5Z" fill="#23B979"/>
<path d="M7.00049 24.5C8.10506 24.5 9.00049 23.6046 9.00049 22.5C9.00049 21.3954 8.10506 20.5 7.00049 20.5C5.89592 20.5 5.00049 21.3954 5.00049 22.5C5.00049 23.6046 5.89592 24.5 7.00049 24.5Z" fill="#FAA846"/>
<path d="M27.5005 17.5C28.3289 17.5 29.0005 16.8284 29.0005 16C29.0005 15.1716 28.3289 14.5 27.5005 14.5C26.6721 14.5 26.0005 15.1716 26.0005 16C26.0005 16.8284 26.6721 17.5 27.5005 17.5Z" fill="#FAA846"/>
<path d="M12.5005 15.5C13.3289 15.5 14.0005 14.8284 14.0005 14C14.0005 13.1716 13.3289 12.5 12.5005 12.5C11.6721 12.5 11.0005 13.1716 11.0005 14C11.0005 14.8284 11.6721 15.5 12.5005 15.5Z" fill="#FAA846"/>
</svg>
