<svg width="36" height="36" viewBox="0 0 36 36" fill="none" xmlns="http://www.w3.org/2000/svg">
<path d="M36 18C36 27.941 27.941 36 18 36C8.06 36 0 27.941 0 18C0 8.06 8.06 0 18 0C27.941 0 36 8.06 36 18Z" fill="#FFCB4C"/>
<path d="M12.1761 18.4159C13.6379 18.4159 14.8231 16.7567 14.8231 14.7099C14.8231 12.6631 13.6379 11.0039 12.1761 11.0039C10.7142 11.0039 9.52905 12.6631 9.52905 14.7099C9.52905 16.7567 10.7142 18.4159 12.1761 18.4159Z" fill="#65471B"/>
<path d="M24.882 21.1761C28.6828 21.1761 31.764 18.0949 31.764 14.2941C31.764 10.4933 28.6828 7.41211 24.882 7.41211C21.0812 7.41211 18 10.4933 18 14.2941C18 18.0949 21.0812 21.1761 24.882 21.1761Z" fill="#F4F7F9"/>
<path d="M14.825 9.94592C14.503 9.94592 14.185 9.79992 13.977 9.52292C12.986 8.20192 11.949 7.49392 10.894 7.41892C9.50404 7.32392 8.37104 8.36592 8.16004 8.57692C7.74604 8.99092 7.07604 8.99092 6.66304 8.57692C6.24904 8.16292 6.24904 7.49292 6.66304 7.07992C7.12004 6.62292 8.79204 5.14392 11.044 5.30692C12.739 5.42692 14.295 6.41792 15.671 8.25192C16.022 8.71992 15.927 9.38392 15.46 9.73392C15.268 9.87692 15.045 9.94592 14.825 9.94592Z" fill="#65471B"/>
<path d="M32.8239 36.0001C32.2389 36.0001 31.7649 35.5261 31.7649 34.9411V14.8241C31.7649 14.2391 32.2389 13.7651 32.8239 13.7651C33.4089 13.7651 33.8829 14.2391 33.8829 14.8241V34.9421C33.8819 35.5261 33.4089 36.0001 32.8239 36.0001Z" fill="#292F33"/>
<path d="M32.8239 12.706C32.7699 12.706 32.7189 12.718 32.6659 12.722C31.9339 9.09403 28.7229 6.35303 24.8819 6.35303C20.5029 6.35303 16.9409 9.91503 16.9409 14.294C16.9409 18.673 20.5029 22.235 24.8819 22.235C28.3499 22.235 31.2979 19.997 32.3779 16.892C32.5219 16.923 32.6699 16.941 32.8229 16.941C33.9929 16.941 34.9409 15.993 34.9409 14.823C34.9409 13.654 33.9929 12.706 32.8239 12.706ZM24.8819 20.118C21.6709 20.118 19.0589 17.506 19.0589 14.294C19.0589 11.082 21.6719 8.47003 24.8819 8.47003C28.0929 8.47003 30.7059 11.082 30.7059 14.294C30.7059 17.506 28.0929 20.118 24.8819 20.118Z" fill="#67757F"/>
<path d="M21.175 28.5878C21.016 28.5878 20.854 28.5518 20.702 28.4758C18.883 27.5658 17.115 27.5658 15.296 28.4758C14.772 28.7368 14.136 28.5258 13.875 28.0018C13.613 27.4788 13.825 26.8428 14.349 26.5808C16.77 25.3708 19.226 25.3708 21.649 26.5808C22.172 26.8428 22.384 27.4788 22.123 28.0018C21.938 28.3738 21.564 28.5878 21.175 28.5878Z" fill="#65471B"/>
<path d="M28.0491 9.41119C27.1371 8.81819 26.0511 8.47119 24.8821 8.47119C21.6661 8.47119 19.0581 11.0782 19.0581 14.2952C19.0581 15.4642 19.4061 16.5502 19.9981 17.4622L28.0491 9.41119ZM22.3971 19.5552C23.1521 19.9122 23.9921 20.1182 24.8821 20.1182C28.0981 20.1182 30.7061 17.5112 30.7061 14.2942C30.7061 13.4042 30.5001 12.5632 30.1431 11.8092L22.3971 19.5552Z" fill="#BDDDF4"/>
</svg>
